<svg width="72" height="54" viewBox="0 0 72 54" fill="none" xmlns="http://www.w3.org/2000/svg">
<circle cx="31.0637" cy="26.0471" r="26.0471" fill="#EA3838"/>
<path d="M15.5201 10.5C16.7033 13.989 22.0166 16 22.0166 16C20.6526 17.728 20.021 18.7741 19.5166 21C19.5166 21 11.5789 18.3367 10.0201 14C9.47549 12.4847 9.40084 7.82842 8.02013 6.99999C6.1258 5.8634 4.72926 12 2.52013 12C1.01672 12 0.203321 10.9936 0.0167243 8.5C-0.283306 4.49051 3.52077 0.999986 6.02114 0.499993C8.52151 -7.7486e-07 10.8642 0.338728 12.5166 2C14.0087 3.50005 14.4468 7.33469 15.5201 10.5Z" fill="#F49EB7"/>
<path d="M53.9973 40.4999C53.7995 39.9166 53 39.9999 53 39.9999C53.5 38.9999 55 35.9999 56 33.4999C56 33.4999 58 35.9999 58.4973 37.9999C58.8859 39.5625 58.6164 46.6715 59.9971 47.4999C61.8914 48.6365 63.4957 48.4999 65.9971 47.4999C67.3931 46.9419 70.8107 45.0063 70.9973 47.4999C71.2973 51.5094 66.4961 53 63.9957 53.5C61.4954 53.9999 56.6495 52.1612 54.9971 50.5C53.505 48.9999 55.0707 43.6653 53.9973 40.4999Z" fill="#F49EB7"/>
<circle cx="2.5166" cy="4.5" r="0.5" fill="black"/>
<circle cx="4.5166" cy="6.5" r="0.5" fill="black"/>
<path d="M0.5 9C0.911065 10.7809 2.5 11 3.5 10" stroke="black" stroke-width="0.3" stroke-linecap="round"/>
</svg>
